<svg width="93" height="64" viewBox="0 0 93 64" fill="none" xmlns="http://www.w3.org/2000/svg">
<path d="M16.6019 55.0952V55.7456C16.6019 57.7185 16.0815 59.1061 15.0409 59.9082C14.011 60.7104 12.1899 61.1115 9.57737 61.1115H1.41465V49.7292H9.47981C12.1032 49.7292 13.946 50.1357 15.0083 50.9488C16.0707 51.7509 16.6019 53.1331 16.6019 55.0952ZM8.87817 51.7455H3.88623V59.0952H8.87817C10.3308 59.0952 11.4311 58.976 12.179 58.7375C12.927 58.499 13.4311 58.1359 13.6913 57.648C13.9623 57.1602 14.0978 56.4502 14.0978 55.5179V55.3553C14.0978 54.4231 13.9623 53.713 13.6913 53.2252C13.4311 52.7266 12.927 52.358 12.179 52.1195C11.4311 51.8702 10.3308 51.7455 8.87817 51.7455ZM29.3017 55.8919V61.1115H27.0415V59.3879H26.9765C26.467 60.6454 24.9819 61.2741 22.5212 61.2741C19.681 61.2741 18.2609 60.3635 18.2609 58.5424V58.4123C18.2718 56.8404 19.2853 56.022 21.3016 55.957L27.0415 55.7618V55.7131C27.0415 54.9976 26.8031 54.5152 26.3261 54.2659C25.86 54.0057 25.0795 53.8756 23.9846 53.8756C23.0848 53.8756 22.4182 53.9624 21.9846 54.1358C21.5509 54.2984 21.2366 54.5911 21.0415 55.0139H18.6837C18.933 54.0816 19.4588 53.4041 20.261 52.9813C21.0631 52.5477 22.3043 52.3309 23.9846 52.3309H24.4236C26.1689 52.3309 27.4155 52.6019 28.1635 53.1439C28.9223 53.6859 29.3017 54.6019 29.3017 55.8919ZM20.5536 58.3798V58.4448C20.5536 58.9218 20.765 59.2632 21.1878 59.4692C21.6214 59.6752 22.2935 59.7782 23.2041 59.7782C24.3532 59.7782 25.28 59.5722 25.9846 59.1603C26.6892 58.7483 27.0415 58.163 27.0415 57.4041V57.1602L22.2772 57.3391C21.6702 57.3608 21.2312 57.4529 20.9602 57.6155C20.6891 57.7781 20.5536 58.0329 20.5536 58.3798ZM41.719 52.4935L35.4587 63.8758H33.0684L34.727 61.0953L29.9464 52.4935H32.4018L35.8977 58.8513H36.0116L39.3612 52.4935H41.719Z" fill="white"/>
<path d="M50.3677 51.8919V61.1115H47.8961V51.8919H42.0261V49.7292H56.2377V51.8919H50.3677ZM66.1417 55.8919V61.1115H63.8815V59.3879H63.8164C63.307 60.6454 61.8218 61.2741 59.3611 61.2741C56.521 61.2741 55.1009 60.3635 55.1009 58.5424V58.4123C55.1117 56.8404 56.1253 56.022 58.1416 55.957L63.8815 55.7618V55.7131C63.8815 54.9976 63.643 54.5152 63.166 54.2659C62.6999 54.0057 61.9194 53.8756 60.8245 53.8756C59.9248 53.8756 59.2581 53.9624 58.8245 54.1358C58.3909 54.2984 58.0765 54.5911 57.8814 55.0139H55.5236C55.773 54.0816 56.2987 53.4041 57.1009 52.9813C57.9031 52.5477 59.1443 52.3309 60.8245 52.3309H61.2636C63.0088 52.3309 64.2555 52.6019 65.0035 53.1439C65.7623 53.6859 66.1417 54.6019 66.1417 55.8919ZM57.3936 58.3798V58.4448C57.3936 58.9218 57.605 59.2632 58.0277 59.4692C58.4614 59.6752 59.1335 59.7782 60.044 59.7782C61.1931 59.7782 62.1199 59.5722 62.8246 59.1603C63.5292 58.7483 63.8815 58.163 63.8815 57.4041V57.1602L59.1172 57.3391C58.5101 57.3608 58.0711 57.4529 57.8001 57.6155C57.5291 57.7781 57.3936 58.0329 57.3936 58.3798ZM73.6448 61.2741H73.2871C71.5093 61.2741 70.1922 61.0953 69.3358 60.7375C68.4795 60.369 67.932 59.7348 67.6935 58.8351H70.1163C70.3223 59.1494 70.6854 59.3662 71.2058 59.4855C71.737 59.5939 72.512 59.6481 73.531 59.6481C74.7668 59.6481 75.6178 59.5722 76.0839 59.4204C76.55 59.2578 76.7939 58.9706 76.8156 58.5586V58.5098C76.8156 58.1955 76.6639 57.9841 76.3603 57.8757C76.0568 57.7565 75.4768 57.6806 74.6205 57.648L71.4985 57.5342C70.2518 57.4909 69.3575 57.2849 68.8155 56.9163C68.2735 56.5478 68.0025 55.9678 68.0025 55.1765V54.9976C68.0025 54.022 68.4307 53.3336 69.2871 52.9325C70.1434 52.5314 71.4659 52.3309 73.2546 52.3309H73.466C75.092 52.3309 76.3061 52.526 77.1083 52.9163C77.9105 53.3065 78.4796 53.9244 78.8156 54.77H76.3603C76.0026 54.2171 74.9619 53.9407 73.2383 53.9407C72.1218 53.9407 71.3467 54.0166 70.9131 54.1683C70.4795 54.3092 70.2627 54.564 70.2627 54.9326V54.9813C70.2627 55.2957 70.409 55.5071 70.7017 55.6155C71.0269 55.7347 71.6123 55.8106 72.4578 55.8431L75.5798 55.957C76.8481 56.0112 77.7425 56.2171 78.2628 56.5749C78.794 56.9326 79.0595 57.5125 79.0595 58.3147V58.4773C79.0595 59.5288 78.6259 60.2606 77.7587 60.6725C76.8915 61.0736 75.5202 61.2741 73.6448 61.2741ZM82.9665 58.6725V61.1115H80.69V49.7292H82.9665V56.4285H83.0315L88.6576 52.4935H91.8284L86.5926 56.1521L92.2837 61.1115H89.0804L84.869 57.3879H84.8039L82.9665 58.6725Z" fill="#FED36A"/>
<g opacity="0.3">
<path d="M64.0982 16.3799C65.978 16.1743 67.3352 14.4839 67.1297 12.6041C66.9241 10.7244 65.2337 9.36713 63.3539 9.57267C61.4742 9.77821 60.1169 11.4687 60.3225 13.3484C60.528 15.2282 62.2185 16.5854 64.0982 16.3799Z" stroke="#EB996E" stroke-width="0.376003" stroke-linecap="round" stroke-linejoin="round"/>
<path d="M66.2963 14.3656C67.0622 12.9473 66.5333 11.1768 65.1151 10.4109C63.6969 9.64502 61.9263 10.1739 61.1604 11.5921C60.3945 13.0103 60.9234 14.7809 62.3416 15.5468C63.7599 16.3127 65.5304 15.7838 66.2963 14.3656Z" stroke="#EB996E" stroke-width="0.376003" stroke-linecap="round" stroke-linejoin="round"/>
<path d="M64.9691 13.5622C64.9691 12.5808 63.5771 12.5587 63.5771 12.149C63.5771 11.9336 63.6903 11.8682 63.9223 11.8682C64.1221 11.8682 64.2906 11.9548 64.483 12.1279L64.9433 11.5985C64.7309 11.3604 64.444 11.2014 64.1295 11.1474V10.595H63.5228V11.163C63.0026 11.2753 62.6942 11.6464 62.6942 12.1923C62.6942 13.136 64.0871 13.1958 64.0871 13.6276C64.0871 13.8375 63.9785 13.9296 63.7088 13.9296C63.4823 13.9296 63.2558 13.843 62.9639 13.6276L62.5653 14.2536C62.839 14.4798 63.1727 14.6212 63.5255 14.6606V15.2028H64.1304V14.6228C64.6911 14.4893 64.9691 14.0824 64.9691 13.5622Z" stroke="#EB996E" stroke-width="0.376003" stroke-linecap="round" stroke-linejoin="round"/>
</g>
<g opacity="0.3">
<path d="M65.7664 32.7282C66.6287 32.7282 67.3278 32.0292 67.3278 31.1668C67.3278 30.3045 66.6287 29.6054 65.7664 29.6054C64.904 29.6054 64.205 30.3045 64.205 31.1668C64.205 32.0292 64.904 32.7282 65.7664 32.7282Z" stroke="#EB996E" stroke-width="0.376003" stroke-linecap="round" stroke-linejoin="round"/>
<path d="M66.7073 32.1084C67.2272 31.5885 67.2272 30.7456 66.7073 30.2257C66.1874 29.7058 65.3445 29.7058 64.8246 30.2257C64.3048 30.7456 64.3048 31.5885 64.8246 32.1084C65.3445 32.6283 66.1874 32.6283 66.7073 32.1084Z" stroke="#EB996E" stroke-width="0.376003" stroke-linecap="round" stroke-linejoin="round"/>
<path d="M66.3327 31.4339C66.3327 30.9864 65.6974 30.9735 65.6974 30.7894C65.6974 30.6909 65.749 30.6614 65.8549 30.6614C65.9524 30.6663 66.0444 30.7085 66.1117 30.7793L66.3207 30.5381C66.2242 30.4304 66.0946 30.3579 65.9524 30.3318V30.0805H65.6762V30.3392C65.5643 30.3554 65.4626 30.413 65.3912 30.5006C65.3197 30.5883 65.2838 30.6996 65.2905 30.8124C65.2905 31.2433 65.9257 31.2727 65.9257 31.467C65.9257 31.5637 65.876 31.6051 65.7536 31.6051C65.6281 31.5982 65.5085 31.5496 65.4139 31.467L65.2297 31.7533C65.3547 31.8562 65.507 31.9202 65.668 31.9375V32.1851H65.9442V31.9172C66.0568 31.898 66.1585 31.8382 66.23 31.7492C66.3016 31.6601 66.3381 31.548 66.3327 31.4339Z" stroke="#EB996E" stroke-width="0.376003" stroke-linecap="round" stroke-linejoin="round"/>
</g>
<g opacity="0.3">
<path d="M37.716 6.35593C39.0525 6.14209 39.9626 4.88528 39.7488 3.54875C39.5349 2.21223 38.2781 1.30211 36.9416 1.51595C35.6051 1.72979 34.695 2.9866 34.9088 4.32313C35.1226 5.65965 36.3794 6.56976 37.716 6.35593Z" stroke="#EB996E" stroke-width="0.376003" stroke-linecap="round" stroke-linejoin="round"/>
<path d="M39.0928 5.05689C39.7109 4.08268 39.4221 2.79193 38.4479 2.17392C37.4737 1.55591 36.1829 1.84466 35.5649 2.81887C34.9469 3.79307 35.2357 5.08382 36.2099 5.70183C37.1841 6.31984 38.4748 6.03109 39.0928 5.05689Z" stroke="#EB996E" stroke-width="0.376003" stroke-linecap="round" stroke-linejoin="round"/>
<path d="M38.2168 4.35666C38.2168 3.65421 37.2207 3.63856 37.2207 3.34395C37.2207 3.1902 37.3017 3.14325 37.4684 3.14325C37.621 3.15017 37.765 3.2162 37.8698 3.32738L38.1975 2.94899C38.0454 2.77828 37.84 2.66406 37.6147 2.62492V2.23273H37.182V2.64057C37.0095 2.66828 36.8533 2.75884 36.7435 2.89481C36.6337 3.03079 36.578 3.20257 36.5873 3.37709C36.5873 4.05285 37.5834 4.0952 37.5834 4.40454C37.5834 4.5546 37.507 4.62089 37.3137 4.62089C37.1517 4.62089 36.9887 4.55921 36.7806 4.40454L36.4952 4.85013C36.6906 5.01268 36.9294 5.11417 37.182 5.14198V5.53141H37.6147V5.1162C37.79 5.08388 37.9476 4.98909 38.0583 4.84943C38.1691 4.70976 38.2254 4.53469 38.2168 4.35666Z" stroke="#EB996E" stroke-width="0.376003" stroke-linecap="round" stroke-linejoin="round"/>
</g>
<g opacity="0.3">
<path d="M18.1658 33.1393C19.017 33.0012 19.595 32.1991 19.4568 31.3479C19.3186 30.4967 18.5166 29.9187 17.6654 30.0568C16.8142 30.195 16.2362 30.997 16.3743 31.8483C16.5125 32.6995 17.3145 33.2775 18.1658 33.1393Z" stroke="#EB996E" stroke-width="0.376003" stroke-linecap="round" stroke-linejoin="round"/>
<path d="M19.245 31.5987C19.245 31.3354 19.167 31.078 19.0207 30.8591C18.8744 30.6402 18.6665 30.4696 18.4232 30.3688C18.18 30.268 17.9123 30.2417 17.6541 30.293C17.3958 30.3444 17.1586 30.4712 16.9724 30.6574C16.7863 30.8436 16.6595 31.0808 16.6081 31.339C16.5567 31.5972 16.5831 31.8649 16.6839 32.1082C16.7846 32.3514 16.9552 32.5593 17.1742 32.7056C17.3931 32.8519 17.6505 32.93 17.9138 32.93C18.2668 32.93 18.6055 32.7897 18.8551 32.5401C19.1048 32.2904 19.245 31.9518 19.245 31.5987V31.5987Z" stroke="#EB996E" stroke-width="0.376003" stroke-linecap="round" stroke-linejoin="round"/>
<path d="M18.48 31.8666C18.48 31.4182 17.8457 31.4063 17.8457 31.2221C17.8457 31.1236 17.8973 31.0942 18.0031 31.0942C18.1005 31.0989 18.1922 31.1412 18.2591 31.212L18.4681 30.9708C18.3718 30.863 18.2421 30.7907 18.0998 30.7655V30.5132H17.8236V30.7729C17.7135 30.7903 17.6137 30.8479 17.5436 30.9347C17.4735 31.0214 17.4382 31.1311 17.4443 31.2424C17.4443 31.6723 18.0796 31.7027 18.0796 31.897C18.0796 31.989 18.0308 32.0342 17.9074 32.0342C17.782 32.0276 17.6625 31.9793 17.5677 31.897L17.3835 32.1824C17.5088 32.2848 17.661 32.3487 17.8218 32.3665V32.6132H18.098V32.3499C18.2096 32.3297 18.31 32.2694 18.3803 32.1805C18.4507 32.0915 18.4861 31.9799 18.48 31.8666V31.8666Z" stroke="#EB996E" stroke-width="0.376003" stroke-linecap="round" stroke-linejoin="round"/>
</g>
<g opacity="0.3">
<path d="M57.0624 40.1354C57.9152 40.0072 58.5026 39.212 58.3743 38.3592C58.2461 37.5064 57.4509 36.9191 56.5981 37.0473C55.7454 37.1755 55.158 37.9707 55.2862 38.8235C55.4144 39.6762 56.2097 40.2636 57.0624 40.1354Z" stroke="#EB996E" stroke-width="0.376003" stroke-linecap="round" stroke-linejoin="round"/>
<path d="M58.1599 38.5938C58.1596 38.3305 58.0812 38.0733 57.9347 37.8547C57.7882 37.636 57.5802 37.4656 57.3369 37.3652C57.0936 37.2647 56.826 37.2386 56.5678 37.2901C56.3097 37.3417 56.0727 37.4687 55.8867 37.6549C55.7007 37.8412 55.5741 38.0784 55.5229 38.3366C55.4717 38.5948 55.4981 38.8623 55.5989 39.1055C55.6998 39.3486 55.8704 39.5564 56.0893 39.7026C56.3082 39.8488 56.5655 39.9269 56.8287 39.9269C57.0037 39.927 57.177 39.8926 57.3387 39.8256C57.5004 39.7586 57.6473 39.6604 57.771 39.5366C57.8946 39.4127 57.9926 39.2657 58.0594 39.1039C58.1261 38.9421 58.1603 38.7688 58.1599 38.5938V38.5938Z" stroke="#EB996E" stroke-width="0.376003" stroke-linecap="round" stroke-linejoin="round"/>
<path d="M57.395 38.8607C57.395 38.4133 56.7606 38.4004 56.7606 38.2163C56.7606 38.1178 56.8122 38.0883 56.9181 38.0883C57.0154 38.0931 57.1071 38.1353 57.174 38.2062L57.383 37.9649C57.2869 37.8568 57.1571 37.7842 57.0147 37.7587V37.5074H56.7385V37.767C56.6286 37.7844 56.5289 37.8419 56.4589 37.9284C56.3888 38.015 56.3533 38.1244 56.3592 38.2356C56.3592 38.6665 56.9945 38.6959 56.9945 38.8911C56.9945 38.9832 56.9457 39.0283 56.8223 39.0283C56.697 39.0217 56.5774 38.9734 56.4826 38.8911L56.2985 39.1765C56.4237 39.2789 56.5759 39.3429 56.7367 39.3607V39.6074H57.0129V39.3432C57.1242 39.3228 57.2244 39.2626 57.2947 39.1738C57.365 39.0851 57.4006 38.9738 57.395 38.8607Z" stroke="#EB996E" stroke-width="0.376003" stroke-linecap="round" stroke-linejoin="round"/>
</g>
<g opacity="0.3">
<path d="M25.9474 15.4413C26.8098 15.4413 27.5088 14.7422 27.5088 13.8798C27.5088 13.0175 26.8098 12.3184 25.9474 12.3184C25.0851 12.3184 24.386 13.0175 24.386 13.8798C24.386 14.7422 25.0851 15.4413 25.9474 15.4413Z" stroke="#EB996E" stroke-width="0.376003" stroke-linecap="round" stroke-linejoin="round"/>
<path d="M27.1992 14.3317C27.4495 13.6404 27.0919 12.877 26.4006 12.6268C25.7093 12.3765 24.9459 12.7341 24.6957 13.4254C24.4454 14.1167 24.803 14.8801 25.4943 15.1303C26.1857 15.3806 26.949 15.023 27.1992 14.3317Z" stroke="#EB996E" stroke-width="0.376003" stroke-linecap="round" stroke-linejoin="round"/>
<path d="M26.5145 14.1486C26.5145 13.7003 25.8793 13.6883 25.8793 13.5042C25.8793 13.4057 25.9308 13.3762 26.0367 13.3762C26.1342 13.3809 26.2261 13.4236 26.2927 13.495L26.5016 13.2538C26.4055 13.1456 26.2758 13.073 26.1334 13.0475V12.7953H25.8572V13.0549C25.7471 13.0725 25.6475 13.1302 25.5774 13.2169C25.5074 13.3036 25.4719 13.4131 25.4779 13.5244C25.4779 13.9553 26.1131 13.9848 26.1131 14.179C26.1131 14.2711 26.0643 14.3171 25.941 14.3171C25.8156 14.31 25.6961 14.2614 25.6012 14.179L25.4171 14.4644C25.5424 14.5668 25.6946 14.6308 25.8553 14.6486V14.8962H26.1315V14.6311C26.2431 14.6109 26.3434 14.5508 26.4139 14.462C26.4844 14.3732 26.5201 14.2618 26.5145 14.1486V14.1486Z" stroke="#EB996E" stroke-width="0.376003" stroke-linecap="round" stroke-linejoin="round"/>
</g>
<g opacity="0.3">
<path d="M24.98 36.203C26.8597 35.9968 28.2163 34.3059 28.0101 32.4262C27.8039 30.5465 26.113 29.1899 24.2333 29.3961C22.3536 29.6023 20.997 31.2932 21.2032 33.1729C21.4094 35.0526 23.1003 36.4092 24.98 36.203Z" stroke="#EB996E" stroke-width="0.376003" stroke-linecap="round" stroke-linejoin="round"/>
<path d="M27.2257 34.0883C27.9389 32.6428 27.3452 30.8929 25.8997 30.1798C24.4543 29.4666 22.7043 30.0603 21.9912 31.5058C21.2781 32.9513 21.8717 34.7012 23.3172 35.4143C24.7627 36.1274 26.5126 35.5338 27.2257 34.0883Z" stroke="#EB996E" stroke-width="0.376003" stroke-linecap="round" stroke-linejoin="round"/>
<path d="M25.8508 33.3847C25.8508 32.4024 24.4588 32.3812 24.4588 31.9706C24.4588 31.7552 24.572 31.6898 24.804 31.6898C25.0038 31.6898 25.1723 31.7764 25.3656 31.9494L25.8259 31.4201C25.6128 31.1824 25.3257 31.0234 25.0111 30.969V30.4166H24.4044V30.9855C23.8852 31.0978 23.5759 31.4689 23.5759 32.0139C23.5759 32.9585 24.9679 33.0174 24.9679 33.4492C24.9679 33.66 24.8602 33.7512 24.5904 33.7512C24.3639 33.7512 24.1365 33.6646 23.8456 33.4492L23.446 34.0752C23.7198 34.3012 24.0535 34.4426 24.4063 34.4821V35.0244H25.0111V34.4444C25.5727 34.3109 25.8508 33.904 25.8508 33.3847Z" stroke="#EB996E" stroke-width="0.376003" stroke-linecap="round" stroke-linejoin="round"/>
</g>
<path d="M22.6461 16.3297C22.6682 16.7689 22.2981 17.6821 22.2981 17.6831C22.2981 17.684 21.7696 17.2568 21.7402 17.2227C21.394 16.86 20.9373 15.9568 21.2043 15.4634C21.251 15.3826 21.3141 15.3125 21.3896 15.2578C21.4651 15.203 21.5513 15.1647 21.6426 15.1455C21.7338 15.1262 21.8281 15.1263 21.9193 15.1459C22.0105 15.1654 22.0966 15.204 22.1719 15.259C22.4988 15.4845 22.6267 15.9559 22.6461 16.3297Z" fill="#BC9434"/>
<path d="M31.6058 25.0537L31.6628 25.0878L31.6702 25.4846L31.4327 25.3382C31.2034 25.1955 30.9613 25.039 30.7137 24.8779C30.5223 25.0864 30.3188 25.2835 30.1042 25.468C30.2938 25.8473 30.3739 26.6649 30.3804 26.7698C30.6465 26.7634 30.9052 26.7542 31.1491 26.7422C31.3167 26.7339 31.4778 26.7247 31.6334 26.7146L31.5027 27.0608C31.3913 27.0608 31.2789 27.069 31.162 27.0718C30.8923 27.0792 30.6041 27.0828 30.3077 27.0828C30.2911 27.1887 30.1493 28.0587 29.9219 28.404C29.7157 28.7161 29.3695 29.0567 28.97 29.0816C28.8777 29.0903 28.7847 29.0797 28.6969 29.0503C28.609 29.0209 28.5283 28.9735 28.4599 28.9111C28.3915 28.8486 28.3369 28.7726 28.2996 28.6878C28.2624 28.603 28.2433 28.5113 28.2436 28.4187C28.2647 27.8571 29.1173 27.3139 29.5997 27.1758C29.6282 27.1685 29.9468 27.116 30.1475 27.0838C30.0269 27.0838 29.909 27.0838 29.7847 27.0838C29.538 27.0838 29.2922 27.0709 29.027 27.0617L28.6404 27.0341C28.5115 27.0276 28.3752 27.0046 28.2417 26.9899C27.9315 26.9503 27.6203 26.8978 27.3073 26.8324C27.3073 27.0479 27.2833 27.8138 27.1231 28.1554C26.9629 28.497 26.6729 28.8855 26.2853 28.9702C26.1948 28.9931 26.1005 28.9966 26.0085 28.9806C25.9165 28.9646 25.8289 28.9294 25.7514 28.8773C25.674 28.8252 25.6083 28.7573 25.5588 28.6781C25.5093 28.599 25.4771 28.5103 25.4641 28.4178C25.3997 27.8599 26.1601 27.1915 26.6168 26.9843C26.6444 26.9715 26.985 26.8601 27.1793 26.8002C26.9952 26.7606 26.8037 26.7229 26.6149 26.6768C26.0699 26.5443 25.523 26.3933 24.9762 26.2451L24.4763 26.1171C24.4763 26.1944 24.4717 27.1059 24.2921 27.4879C24.1356 27.8277 23.841 28.218 23.4543 28.3027C23.3638 28.3257 23.2694 28.3294 23.1774 28.3135C23.0853 28.2975 22.9977 28.2623 22.9202 28.2102C22.8427 28.1581 22.777 28.0901 22.7276 28.0109C22.6781 27.9317 22.6459 27.8429 22.6331 27.7503C22.5687 27.1924 23.3291 26.524 23.7849 26.3169C23.8198 26.3012 24.3152 26.141 24.4431 26.107C24.0749 26.0094 23.7066 25.9164 23.3383 25.84C22.8431 25.7337 22.3416 25.6596 21.8368 25.6181C21.8368 25.654 21.8368 26.605 21.6526 26.9991C21.4952 27.3388 21.2015 27.7282 20.8148 27.8129C20.7243 27.8361 20.6298 27.8399 20.5376 27.824C20.4455 27.8081 20.3577 27.773 20.2801 27.7208C20.2025 27.6687 20.1367 27.6007 20.0872 27.5214C20.0377 27.4421 20.0055 27.3532 19.9927 27.2605C19.9292 26.7035 20.6887 26.0342 21.1454 25.8271C21.1813 25.8114 21.7143 25.643 21.8128 25.6144C21.7834 25.6144 21.7539 25.607 21.7208 25.6052C21.2135 25.5777 20.7049 25.5953 20.2008 25.6577C19.9246 25.689 19.6576 25.7341 19.4007 25.7838C19.4191 25.9615 19.4928 26.7717 19.3694 27.1427C19.2507 27.4981 19.0012 27.917 18.6255 28.044C18.5391 28.075 18.4471 28.0877 18.3555 28.0813C18.2639 28.075 18.1746 28.0497 18.0932 28.007C18.0119 27.9643 17.9403 27.9053 17.8829 27.8335C17.8256 27.7618 17.7838 27.6789 17.7601 27.5901C17.6349 27.0377 18.3125 26.2948 18.748 26.0388C18.771 26.025 19.0242 25.9099 19.2083 25.828C19.0923 25.8529 18.9736 25.8759 18.8631 25.9007C18.4497 25.9928 18.0759 26.107 17.7463 26.2092C17.5622 26.269 17.3919 26.3261 17.2354 26.3813C17.1626 26.5654 16.8588 27.302 16.5835 27.5662C16.3083 27.8304 15.8995 28.0836 15.5082 28.0265C15.117 27.9694 14.838 27.6085 14.9402 27.2173C15.0811 26.6741 16.0312 26.3242 16.532 26.2966C16.5753 26.2966 17.2556 26.3334 17.2519 26.3426V26.3537C17.402 26.2975 17.5622 26.2386 17.7399 26.1788C18.0676 26.0692 18.4396 25.9486 18.8529 25.8446C19.297 25.726 19.7477 25.6338 20.2026 25.5684C20.7115 25.4941 21.2261 25.4651 21.7401 25.4818H21.7585C21.6029 25.4266 21.1757 25.2572 21.1444 25.2406C20.7025 25.004 19.9872 24.2887 20.0866 23.7363C20.1057 23.645 20.1438 23.5588 20.1984 23.4832C20.2531 23.4077 20.323 23.3445 20.4037 23.2977C20.4844 23.251 20.574 23.2218 20.6668 23.212C20.7595 23.2022 20.8532 23.2121 20.9419 23.241C21.323 23.3505 21.5864 23.7575 21.7254 24.1073C21.8773 24.5014 21.823 25.4146 21.8174 25.4883C22.3401 25.5185 22.8602 25.5834 23.3743 25.6825C23.6735 25.7387 23.9745 25.805 24.2746 25.875C24.1421 25.8225 24.0242 25.7746 24.0086 25.7663C23.5657 25.5297 22.8513 24.8144 22.9508 24.262C22.9699 24.1707 23.008 24.0845 23.0626 24.0089C23.1172 23.9333 23.1871 23.87 23.2678 23.8232C23.3484 23.7764 23.4381 23.7471 23.5308 23.7372C23.6235 23.7273 23.7173 23.737 23.806 23.7658C24.1872 23.8753 24.4551 24.2832 24.5895 24.633C24.7239 24.9829 24.6954 25.7672 24.6816 25.9735C24.7967 26.0011 24.9117 26.0278 25.0259 26.0563C25.5783 26.1926 26.1307 26.3325 26.6683 26.4504C26.8589 26.4927 27.0495 26.5277 27.2391 26.5627C27.1213 26.5157 27.0228 26.4761 27.009 26.4706C26.5661 26.2349 25.8508 25.5187 25.9511 24.9663C25.9702 24.875 26.0083 24.7888 26.063 24.7132C26.1176 24.6377 26.1875 24.5744 26.2682 24.5277C26.3489 24.481 26.4385 24.4518 26.5313 24.442C26.624 24.4322 26.7178 24.4421 26.8064 24.471C27.1867 24.5805 27.4555 24.9884 27.5899 25.3373C27.7243 25.6862 27.6985 26.396 27.682 26.6409C27.8771 26.6713 28.0732 26.7017 28.2638 26.722C28.3945 26.733 28.5188 26.7533 28.6505 26.7569L29.0381 26.7763C29.2848 26.7763 29.5389 26.7836 29.7801 26.7809C29.9468 26.7809 30.107 26.7763 30.2671 26.7726C30.0766 26.733 29.7046 26.6474 29.6742 26.6363C29.2641 26.4745 28.9022 26.2105 28.6229 25.8694C28.5766 25.8533 28.5319 25.833 28.4894 25.8087C28.4069 25.7651 28.3345 25.7046 28.277 25.6312C28.2194 25.5577 28.178 25.473 28.1554 25.3825C28.1328 25.292 28.1296 25.1977 28.1459 25.1058C28.1622 25.014 28.1977 24.9266 28.25 24.8494C28.5768 24.3936 29.5886 24.4084 30.0655 24.5621C30.0941 24.5713 30.3887 24.703 30.5728 24.7895C30.4724 24.7223 30.3739 24.6579 30.2708 24.587C30.0664 24.4489 29.8667 24.3053 29.6512 24.1515L29.3502 23.9075C29.2461 23.8311 29.1458 23.7372 29.0418 23.6507C28.8061 23.4472 28.5759 23.2281 28.3494 23.0062C28.2288 23.1848 27.7888 23.8127 27.4684 24.0106C27.148 24.2086 26.6904 24.3706 26.3212 24.2279C25.9521 24.0852 25.755 23.6755 25.9383 23.3165C26.1924 22.8156 27.1959 22.6775 27.6875 22.7558C27.7188 22.7613 28.0668 22.858 28.2574 22.9142C28.123 22.7779 27.9876 22.6426 27.855 22.4999C27.4739 22.0893 27.1001 21.6612 26.7263 21.2358C26.6112 21.106 26.4952 20.9771 26.3802 20.8482C26.3378 20.9127 25.8278 21.6704 25.4724 21.8922C25.1548 22.0893 24.6945 22.2513 24.3253 22.1086C24.2372 22.078 24.1566 22.0292 24.0886 21.9654C24.0206 21.9016 23.9668 21.8242 23.9307 21.7382C23.8946 21.6523 23.8769 21.5597 23.8789 21.4664C23.8809 21.3732 23.9025 21.2815 23.9423 21.1971C24.1973 20.6972 25.1999 20.5582 25.6915 20.6374C25.7293 20.6438 26.231 20.7829 26.3562 20.8215C26.1021 20.537 25.8462 20.2562 25.5829 19.9929C25.2285 19.6315 24.8511 19.2932 24.4532 18.9802C24.4339 19.0106 23.9082 19.8033 23.5418 20.0307C23.2233 20.2277 22.7629 20.3907 22.3938 20.248C22.3057 20.2173 22.225 20.1684 22.157 20.1045C22.089 20.0405 22.0353 19.963 21.9993 19.877C21.9632 19.7909 21.9457 19.6982 21.9478 19.605C21.95 19.5117 21.9717 19.4199 22.0117 19.3356C22.2658 18.8357 23.2684 18.6976 23.7609 18.7758C23.8005 18.7823 24.34 18.9333 24.4358 18.9673C24.4127 18.9489 24.3906 18.9277 24.3667 18.9103C23.9588 18.6079 23.525 18.342 23.0704 18.1157C22.8209 17.9887 22.5751 17.88 22.3339 17.7797C22.2511 17.938 21.8644 18.6543 21.5578 18.8955C21.2512 19.1367 20.8213 19.3384 20.4401 19.2371C20.3493 19.2162 20.2638 19.1765 20.1893 19.1204C20.1148 19.0644 20.0529 18.9933 20.0077 18.9117C19.9624 18.8302 19.9349 18.7401 19.9267 18.6472C19.9186 18.5543 19.9301 18.4607 19.9605 18.3726C20.1575 17.8478 21.1389 17.6002 21.6398 17.6241C21.6674 17.6241 21.9426 17.6692 22.1424 17.7042C22.0329 17.6609 21.9205 17.6121 21.8147 17.5744C21.417 17.4252 21.0441 17.3129 20.7099 17.2153C20.5258 17.1619 20.349 17.1178 20.1879 17.0772C20.0259 17.1896 19.3676 17.6352 18.991 17.7051C18.6145 17.7751 18.1348 17.7604 17.8421 17.4943C17.5493 17.2282 17.5134 16.7762 17.8145 16.5064C18.2315 16.1308 19.2166 16.3637 19.6502 16.6151C19.6871 16.6372 20.2339 17.045 20.2256 17.0515L20.2155 17.0579C20.3711 17.0938 20.5377 17.1334 20.7191 17.1804C21.0533 17.2724 21.4289 17.3746 21.8312 17.5164C22.2663 17.6638 22.6924 17.8366 23.1073 18.0338C23.5726 18.253 24.0178 18.5127 24.4376 18.8099L24.4514 18.8219C24.3529 18.6902 24.0905 18.3128 24.073 18.2815C23.8346 17.8405 23.633 16.8489 24.0215 16.4402C24.0877 16.3747 24.1671 16.3239 24.2543 16.2911C24.3415 16.2582 24.4346 16.2442 24.5276 16.2497C24.6206 16.2553 24.7114 16.2804 24.7941 16.3233C24.8768 16.3663 24.9495 16.4262 25.0075 16.4991C25.2653 16.8001 25.2634 17.2881 25.1833 17.6536C25.0913 18.066 24.5389 18.7979 24.4993 18.8559C24.9228 19.1702 25.3248 19.5125 25.7026 19.8806C25.9217 20.0933 26.1362 20.3133 26.347 20.537C26.266 20.421 26.1933 20.3161 26.185 20.3004C25.9465 19.8594 25.7449 18.867 26.1334 18.4591C26.1997 18.3936 26.279 18.3428 26.3662 18.31C26.4534 18.2772 26.5466 18.2631 26.6396 18.2687C26.7326 18.2743 26.8234 18.2993 26.9061 18.3423C26.9887 18.3853 27.0614 18.4451 27.1194 18.5181C27.3772 18.8191 27.3754 19.3071 27.2953 19.6726C27.2152 20.038 26.7576 20.677 26.6343 20.8436C26.7153 20.9302 26.7963 21.0158 26.8764 21.1023C27.2603 21.5203 27.6415 21.9383 28.0281 22.3369C28.1644 22.4778 28.3043 22.6131 28.4424 22.7457C28.3706 22.6416 28.3108 22.5542 28.3025 22.5394C28.064 22.0985 27.8624 21.1069 28.2509 20.6982C28.5271 20.4063 28.9874 20.4625 29.2369 20.7571C29.4864 21.0517 29.4929 21.547 29.4128 21.9125C29.3327 22.278 28.9193 22.8543 28.7739 23.0523C28.9202 23.1857 29.0666 23.3192 29.2148 23.4417C29.317 23.5227 29.4109 23.6083 29.5187 23.6838L29.8308 23.9131C30.0351 24.0521 30.2441 24.1966 30.4467 24.3264C30.5866 24.4185 30.7229 24.5032 30.8582 24.5888C30.721 24.4507 30.4577 24.1736 30.4384 24.1478C30.1355 23.7483 29.7866 22.7991 30.1088 22.3387C30.1644 22.2639 30.2351 22.2017 30.3164 22.1559C30.3976 22.1102 30.4876 22.0821 30.5804 22.0735C30.6732 22.0648 30.7668 22.0757 30.8551 22.1056C30.9434 22.1354 31.0244 22.1835 31.093 22.2467C31.3922 22.5054 31.4612 22.9878 31.441 23.3616C31.4143 23.7731 31.0027 24.5501 30.9503 24.6505C31.1749 24.7941 31.3949 24.9295 31.6058 25.0537Z" fill="#BC9434"/>
<path d="M19.3225 25.7258C19.3225 25.736 18.6467 25.6614 18.6044 25.6522C18.1155 25.5408 17.2363 25.039 17.1866 24.4802C17.1811 24.3871 17.1952 24.2939 17.2281 24.2066C17.2609 24.1193 17.3118 24.0399 17.3773 23.9735C17.4429 23.9072 17.5217 23.8554 17.6086 23.8215C17.6955 23.7876 17.7885 23.7724 17.8817 23.7768C18.2776 23.7814 18.644 24.1036 18.8659 24.4056C19.1264 24.7591 19.3225 25.7249 19.3225 25.7258Z" fill="#BC9434"/>
<path d="M68.2292 16.3297C68.2071 16.7689 68.5763 17.6821 68.5763 17.6831C68.5763 17.684 69.1048 17.2568 69.1351 17.2227C69.4813 16.86 69.938 15.9568 69.671 15.4634C69.6243 15.3826 69.5612 15.3125 69.4857 15.2578C69.4102 15.203 69.324 15.1647 69.2327 15.1455C69.1415 15.1262 69.0472 15.1263 68.956 15.1459C68.8648 15.1654 68.7787 15.204 68.7034 15.259C68.3756 15.4845 68.2476 15.9559 68.2292 16.3297Z" fill="#BC9434"/>
<path d="M59.2694 25.0537L59.2114 25.0878L59.205 25.4846L59.4425 25.3382C59.6717 25.1955 59.9139 25.039 60.1606 24.8779C60.352 25.0864 60.5555 25.2834 60.7701 25.468C60.5804 25.8473 60.5012 26.6649 60.4939 26.7698C60.2278 26.7634 59.97 26.7542 59.726 26.7422C59.5576 26.7339 59.3964 26.7247 59.2418 26.7146L59.3734 27.0635C59.4839 27.0635 59.5962 27.0718 59.7132 27.0746C59.9829 27.0819 60.272 27.0856 60.5684 27.0856C60.585 27.1915 60.7268 28.0615 60.9542 28.4067C61.1604 28.7188 61.5066 29.0595 61.9052 29.0843C61.998 29.0935 62.0917 29.083 62.1802 29.0536C62.2687 29.0241 62.35 28.9764 62.4188 28.9134C62.4876 28.8504 62.5424 28.7736 62.5795 28.6881C62.6166 28.6025 62.6353 28.5101 62.6344 28.4169C62.6132 27.8553 61.7607 27.3121 61.2783 27.174C61.2497 27.1666 60.9312 27.1141 60.7259 27.0819C60.8474 27.0819 60.9643 27.0819 61.0941 27.0819C61.3409 27.0819 61.5867 27.069 61.8509 27.0598L62.2376 27.0322C62.3674 27.0258 62.5027 27.0027 62.6371 26.988C62.9465 26.9484 63.2586 26.8959 63.5716 26.8306C63.5716 27.046 63.5946 27.812 63.7557 28.1536C63.9168 28.4951 64.2068 28.8836 64.5935 28.9683C64.6841 28.9912 64.7785 28.9948 64.8705 28.9788C64.9626 28.9628 65.0502 28.9276 65.1278 28.8755C65.2053 28.8234 65.271 28.7555 65.3206 28.6763C65.3702 28.5972 65.4026 28.5084 65.4156 28.4159C65.4792 27.858 64.7196 27.1896 64.263 26.9825C64.2345 26.9696 63.8947 26.8582 63.7005 26.7984C63.8846 26.7588 64.0752 26.721 64.2648 26.675C64.8089 26.5424 65.3567 26.3914 65.9036 26.2432L66.3952 26.1171C66.3952 26.1944 66.3998 27.1059 66.5793 27.4879C66.7359 27.8276 67.0295 28.218 67.4162 28.3027C67.8029 28.3874 68.1923 28.1545 68.2384 27.7503C68.3019 27.1924 67.5423 26.524 67.0857 26.3169C67.0516 26.3012 66.5563 26.141 66.4284 26.107C66.7966 26.0094 67.1649 25.9164 67.5331 25.84C68.0281 25.7337 68.5293 25.6596 69.0338 25.6181C69.0338 25.654 69.0338 26.605 69.2179 26.9991C69.3744 27.3388 69.669 27.7282 70.0557 27.8129C70.1462 27.8359 70.2406 27.8396 70.3327 27.8237C70.4247 27.8077 70.5124 27.7725 70.5899 27.7204C70.6674 27.6683 70.733 27.6003 70.7825 27.5211C70.832 27.4419 70.8641 27.3531 70.8769 27.2605C70.9414 26.7035 70.1818 26.0342 69.7252 25.8271C69.6893 25.8114 69.1562 25.6429 69.0568 25.6144C69.0863 25.6144 69.1166 25.607 69.1489 25.6052C69.6558 25.5777 70.1641 25.5953 70.6679 25.6577C70.9441 25.689 71.212 25.7341 71.468 25.7838C71.4505 25.9615 71.3759 26.7717 71.5002 27.1427C71.619 27.4981 71.8685 27.9169 72.2432 28.044C72.3301 28.0761 72.4227 28.0896 72.5151 28.0838C72.6076 28.0779 72.6978 28.0528 72.78 28.0101C72.8621 27.9674 72.9345 27.9079 72.9923 27.8356C73.0502 27.7633 73.0923 27.6797 73.1159 27.5901C73.2412 27.0377 72.5636 26.2948 72.1281 26.0388C72.1051 26.025 71.8519 25.9099 71.6678 25.828C71.7829 25.8528 71.9025 25.8759 72.013 25.9007C72.4264 25.9928 72.7992 26.1069 73.1288 26.2091C73.313 26.269 73.4842 26.3261 73.6407 26.3813C73.7134 26.5654 74.0173 27.302 74.2925 27.5662C74.5678 27.8304 74.9757 28.0836 75.3669 28.0265C75.4595 28.0153 75.5487 27.9848 75.6288 27.9369C75.7088 27.889 75.7779 27.8248 75.8315 27.7485C75.8852 27.6722 75.9222 27.5855 75.9402 27.494C75.9582 27.4025 75.9567 27.3082 75.9359 27.2173C75.7941 26.6741 74.844 26.3242 74.3441 26.2966C74.3008 26.2966 73.6205 26.3334 73.6241 26.3426V26.3537C73.475 26.2975 73.3139 26.2386 73.1371 26.1788C72.8084 26.0692 72.4374 25.9486 72.0241 25.8446C71.58 25.7261 71.1293 25.6339 70.6744 25.5684C70.1655 25.4941 69.651 25.4651 69.1369 25.4818H69.1185C69.2732 25.4266 69.7013 25.2572 69.7326 25.2406C70.1745 25.004 70.8898 24.2887 70.7895 23.7363C70.7704 23.645 70.7323 23.5588 70.6777 23.4832C70.623 23.4077 70.5531 23.3444 70.4724 23.2977C70.3917 23.251 70.3021 23.2218 70.2093 23.212C70.1166 23.2022 70.0229 23.2121 69.9342 23.241C69.554 23.3505 69.2851 23.7575 69.1507 24.1073C68.9988 24.5013 69.0587 25.4146 69.0587 25.4883C68.5354 25.518 68.0147 25.5826 67.5 25.6816C67.1999 25.7378 66.8997 25.8041 66.5996 25.874C66.7322 25.8215 66.85 25.7737 66.8657 25.7654C67.3076 25.5288 68.0229 24.8134 67.9235 24.2611C67.9044 24.1698 67.8663 24.0835 67.8117 24.0079C67.757 23.9323 67.6871 23.8691 67.6065 23.8223C67.5258 23.7755 67.4362 23.7462 67.3434 23.7363C67.2507 23.7264 67.1569 23.7361 67.0682 23.7648C66.6871 23.8744 66.4182 24.2822 66.2838 24.6321C66.1494 24.9819 66.1789 25.7663 66.1918 25.9725L65.8465 26.0554C65.2941 26.1916 64.7473 26.3316 64.205 26.4494C64.0135 26.4918 63.8238 26.5268 63.6342 26.5617C63.7511 26.5148 63.8496 26.4752 63.8644 26.4697C64.3063 26.234 65.0216 25.5177 64.9222 24.9653C64.9031 24.8741 64.865 24.7878 64.8104 24.7123C64.7557 24.6367 64.6858 24.5735 64.6051 24.5268C64.5244 24.4801 64.4348 24.4508 64.342 24.4411C64.2493 24.4313 64.1556 24.4412 64.0669 24.47C63.6858 24.5796 63.4178 24.9874 63.2834 25.3364C63.149 25.6853 63.1729 26.3933 63.1868 26.6372C62.9916 26.6676 62.7955 26.698 62.6049 26.7183C62.4742 26.7293 62.349 26.7496 62.2173 26.7532L61.8306 26.7726C61.5839 26.7726 61.3289 26.7799 61.0886 26.7772C60.921 26.7772 60.7618 26.7726 60.6016 26.7689C60.7922 26.7293 61.1641 26.6437 61.1936 26.6326C61.6038 26.4711 61.9658 26.2071 62.2449 25.8657C62.2915 25.8497 62.3365 25.8293 62.3793 25.805C62.4617 25.7613 62.534 25.7008 62.5915 25.6273C62.6489 25.5539 62.6903 25.4691 62.7128 25.3787C62.7354 25.2882 62.7387 25.194 62.7225 25.1021C62.7063 25.0103 62.6709 24.9229 62.6187 24.8457C62.2919 24.3899 61.2792 24.4047 60.8023 24.5584C60.7747 24.5676 60.4801 24.6993 60.295 24.7858C60.3963 24.7186 60.4948 24.6542 60.597 24.5833C60.8014 24.4452 61.0011 24.3016 61.2166 24.1478L61.5241 23.9112C61.6281 23.8348 61.7285 23.7409 61.8325 23.6543C62.0691 23.4509 62.2983 23.2318 62.5248 23.0099C62.6463 23.1885 63.0864 23.8164 63.4059 24.0143C63.7253 24.2123 64.1857 24.3678 64.5539 24.2288C64.9222 24.0898 65.1192 23.6764 64.936 23.3174C64.6819 22.8166 63.6793 22.6785 63.1868 22.7567C63.1564 22.7622 62.8075 22.8589 62.6169 22.9151C62.7522 22.7788 62.8875 22.6435 63.0192 22.5008C63.4013 22.0902 63.7741 21.6621 64.1488 21.2367C64.263 21.1069 64.379 20.978 64.4941 20.8491C64.5373 20.9136 65.0465 21.6713 65.4018 21.8931C65.7204 22.0902 66.1807 22.2522 66.5499 22.1095C66.638 22.0789 66.7186 22.0301 66.7866 21.9663C66.8545 21.9025 66.9083 21.825 66.9443 21.739C66.9804 21.6531 66.9979 21.5604 66.9958 21.4672C66.9936 21.374 66.9719 21.2823 66.932 21.1981C66.6779 20.6981 65.6753 20.5591 65.1827 20.6383C65.1459 20.6447 64.6441 20.7838 64.518 20.8224C64.7721 20.5379 65.029 20.2572 65.2923 19.9938C65.6462 19.6322 66.0232 19.2939 66.421 18.9811C66.4413 19.0115 66.9669 19.8042 67.3334 20.0316C67.6519 20.2286 68.1113 20.3916 68.4814 20.2489C68.5695 20.2182 68.6502 20.1693 68.7182 20.1054C68.7861 20.0415 68.8399 19.9639 68.8759 19.8779C68.9119 19.7918 68.9295 19.6991 68.9273 19.6059C68.9252 19.5126 68.9034 19.4208 68.8635 19.3365C68.6094 18.8366 67.6068 18.6985 67.1142 18.7767C67.0756 18.7832 66.5361 18.9342 66.4403 18.9682C66.4633 18.9498 66.4854 18.9287 66.5085 18.9112C66.9167 18.6088 67.3508 18.3429 67.8056 18.1166C68.0551 17.9896 68.301 17.881 68.5422 17.7806C68.625 17.939 69.0108 18.6552 69.3183 18.8964C69.6258 19.1376 70.0548 19.3393 70.435 19.238C70.526 19.2172 70.6115 19.1776 70.6862 19.1216C70.7608 19.0655 70.8228 18.9945 70.8681 18.9129C70.9134 18.8314 70.9411 18.7412 70.9493 18.6483C70.9574 18.5553 70.946 18.4617 70.9156 18.3735C70.7177 17.8487 69.7362 17.6011 69.2354 17.625C69.2087 17.625 68.9334 17.6701 68.7337 17.7051C68.8432 17.6618 68.9555 17.613 69.0614 17.5753C69.4582 17.4262 69.8311 17.3138 70.1662 17.2163C70.3503 17.1629 70.5271 17.1187 70.6873 17.0782C70.8493 17.1905 71.5076 17.6361 71.8841 17.706C72.2607 17.776 72.7394 17.7613 73.0331 17.4952C73.3268 17.2291 73.3618 16.7771 73.0607 16.5073C72.6427 16.1317 71.6576 16.3647 71.2249 16.616C71.1872 16.6381 70.6412 17.0459 70.6495 17.0524L70.6597 17.0588C70.5031 17.0947 70.3365 17.1343 70.1561 17.1813C69.8219 17.2733 69.4453 17.3755 69.043 17.5173C68.6082 17.6647 68.1825 17.8375 67.7679 18.0347C67.3023 18.2535 66.8572 18.5132 66.4376 18.8108L66.4228 18.8228C66.5213 18.6911 66.7846 18.3137 66.8012 18.2824C67.0397 17.8414 67.2413 16.8498 66.8537 16.4411C66.7873 16.3756 66.7079 16.3247 66.6207 16.2919C66.5334 16.2591 66.4402 16.245 66.3471 16.2506C66.254 16.2561 66.1631 16.2812 66.0804 16.3242C65.9976 16.3671 65.9249 16.427 65.8668 16.5C65.6099 16.801 65.6108 17.289 65.6918 17.6545C65.7839 18.0669 66.3363 18.7988 66.3759 18.8568C65.9566 19.1704 65.5586 19.5115 65.1846 19.8778C64.9654 20.0905 64.7519 20.3105 64.5401 20.5343C64.6211 20.4183 64.6929 20.3133 64.7021 20.2977C64.9406 19.8567 65.1413 18.8642 64.7537 18.4564C64.6873 18.3909 64.6079 18.34 64.5207 18.3072C64.4334 18.2744 64.3402 18.2603 64.2471 18.2659C64.154 18.2714 64.0632 18.2965 63.9804 18.3395C63.8976 18.3824 63.8249 18.4423 63.7668 18.5153C63.5099 18.8163 63.5108 19.3043 63.5918 19.6698C63.6729 20.0353 64.1295 20.6742 64.2519 20.8408L64.0015 21.1051C63.6176 21.523 63.2355 21.941 62.8489 22.3397C62.7135 22.4805 62.5727 22.6159 62.4346 22.7484C62.5073 22.6444 62.5672 22.5569 62.5745 22.5422C62.813 22.1012 63.0146 21.1097 62.627 20.7009C62.5606 20.6354 62.4812 20.5846 62.394 20.5518C62.3067 20.5189 62.2135 20.5049 62.1204 20.5104C62.0273 20.516 61.9365 20.541 61.8537 20.584C61.7709 20.627 61.6982 20.6869 61.6401 20.7598C61.3832 21.0609 61.3841 21.5497 61.4651 21.9152C61.5462 22.2807 61.9586 22.8571 62.1032 23.055C61.9568 23.1885 61.8113 23.322 61.6631 23.4444C61.56 23.5255 61.467 23.6111 61.3593 23.6866L61.0463 23.9158C60.8428 24.0548 60.6329 24.1994 60.4303 24.3292C60.2904 24.4212 60.1541 24.5059 60.0197 24.5916C60.1569 24.4535 60.4202 24.1764 60.4395 24.1506C60.7415 23.751 61.0914 22.8018 60.7691 22.3415C60.7135 22.2667 60.6428 22.2044 60.5616 22.1587C60.4803 22.113 60.3904 22.0849 60.2976 22.0762C60.2047 22.0675 60.1111 22.0785 60.0228 22.1083C59.9345 22.1381 59.8535 22.1862 59.785 22.2494C59.4848 22.5081 59.4167 22.9906 59.436 23.3643C59.4637 23.7759 59.8752 24.5529 59.9267 24.6532C59.7003 24.7941 59.4793 24.9294 59.2694 25.0537Z" fill="#BC9434"/>
<path d="M71.5509 25.7259C71.5509 25.736 72.2267 25.6614 72.269 25.6522C72.757 25.5408 73.6362 25.0391 73.6859 24.4802C73.7218 24.0779 73.3793 23.7722 72.9917 23.7768C72.6041 23.7814 72.2294 24.1037 72.0075 24.4057C71.7488 24.7592 71.5509 25.7249 71.5509 25.7259Z" fill="#BC9434"/>
<path d="M33.1218 8.59555L31.5546 9.82263L33.4565 12.2517L35.0237 11.0246L33.1218 8.59555Z" fill="#BC9434" stroke="#BC9434" stroke-width="0.376003" stroke-linejoin="round"/>
<path d="M32.9963 7.30486L30.3317 9.39124L31.6813 11.115L34.346 9.02864L32.9963 7.30486Z" fill="#BC9434" stroke="#BC9434" stroke-width="0.376003" stroke-linejoin="round"/>
<path d="M30.907 9.02252L31.8967 10.2866" stroke="#BC9434" stroke-width="0.376003" stroke-linejoin="round"/>
<path d="M31.8092 8.31641L32.7989 9.57954" stroke="#BC9434" stroke-width="0.376003" stroke-linejoin="round"/>
<path d="M31.5634 8.99396L32.5531 10.2571" stroke="#BC9434" stroke-width="0.376003" stroke-linejoin="round"/>
<path d="M53.4542 11.0264L55.0214 12.2535L56.9233 9.82438L55.3561 8.5973L53.4542 11.0264Z" fill="#BC9434" stroke="#BC9434" stroke-width="0.376003" stroke-linejoin="round"/>
<path d="M54.1333 9.02819L56.798 11.1146L58.1476 9.39078L55.483 7.3044L54.1333 9.02819Z" fill="#BC9434" stroke="#BC9434" stroke-width="0.376003" stroke-linejoin="round"/>
<path d="M57.5736 9.02252L56.5839 10.2866" stroke="#BC9434" stroke-width="0.376003" stroke-linejoin="round"/>
<path d="M56.6713 8.31641L55.6816 9.57954" stroke="#BC9434" stroke-width="0.376003" stroke-linejoin="round"/>
<path d="M56.9171 8.99396L55.9274 10.2571" stroke="#BC9434" stroke-width="0.376003" stroke-linejoin="round"/>
<path d="M45.734 4.32812H42.5062V7.56052H45.734V4.32812Z" fill="#BC9434" stroke="#BC9434" stroke-width="0.376003" stroke-linejoin="round"/>
<path d="M46.4558 2.47394H41.7844V5.70633H46.4558V2.47394Z" fill="#BC9434" stroke="#BC9434" stroke-width="0.376003" stroke-linejoin="round"/>
<path d="M42.2042 2.46289V5.15671" stroke="#BC9434" stroke-width="0.376003" stroke-linejoin="round"/>
<path d="M42.5891 5.27732V3.83374" stroke="#BC9434" stroke-width="0.376003" stroke-linejoin="round"/>
<path d="M42.9978 2.53558V4.57942" stroke="#BC9434" stroke-width="0.376003" stroke-linejoin="round"/>
<path d="M43.4066 3.52161V5.39789" stroke="#BC9434" stroke-width="0.376003" stroke-linejoin="round"/>
<path d="M44.0326 2.55957V4.67614" stroke="#BC9434" stroke-width="0.376003" stroke-linejoin="round"/>
<path d="M56.0594 35.8198C62.6536 29.2256 62.6536 18.5342 56.0594 11.94C49.4652 5.34571 38.7738 5.34571 32.1795 11.94C25.5853 18.5342 25.5853 29.2256 32.1796 35.8198C38.7738 42.4141 49.4652 42.4141 56.0594 35.8198Z" fill="#BC9434" stroke="#BC9434" stroke-width="0.376003" stroke-linejoin="round"/>
<path d="M54.6598 34.4202C60.481 28.5989 60.481 19.1608 54.6598 13.3396C48.8386 7.51836 39.4005 7.51836 33.5792 13.3396C27.758 19.1608 27.758 28.5989 33.5792 34.4202C39.4005 40.2414 48.8386 40.2414 54.6598 34.4202Z" fill="white" stroke="#BC9434" stroke-width="0.376003" stroke-linejoin="round"/>
<path d="M53.8337 33.5941C59.1987 28.2291 59.1987 19.5307 53.8337 14.1657C48.4687 8.80072 39.7703 8.80072 34.4053 14.1657C29.0403 19.5307 29.0403 28.2291 34.4053 33.5941C39.7703 38.959 48.4687 38.959 53.8337 33.5941Z" fill="white" stroke="#BC9434" stroke-width="0.376003" stroke-linejoin="round"/>
<path d="M44.1201 10.142V12.0045" stroke="#BC9434" stroke-width="0.376003" stroke-linejoin="round"/>
<path d="M44.1201 35.7416V37.604" stroke="#BC9434" stroke-width="0.376003" stroke-linejoin="round"/>
<path d="M57.8506 23.8735H55.9882" stroke="#BC9434" stroke-width="0.376003" stroke-linejoin="round"/>
<path d="M32.2511 23.8735H30.3887" stroke="#BC9434" stroke-width="0.376003" stroke-linejoin="round"/>
<path d="M53.8293 14.1643L52.5118 15.4808" stroke="#BC9434" stroke-width="0.376003" stroke-linejoin="round"/>
<path d="M35.7274 32.2652L34.4109 33.5826" stroke="#BC9434" stroke-width="0.376003" stroke-linejoin="round"/>
<path d="M34.4109 14.1643L35.7274 15.4808" stroke="#BC9434" stroke-width="0.376003" stroke-linejoin="round"/>
<path d="M52.5118 32.2652L53.8293 33.5826" stroke="#BC9434" stroke-width="0.376003" stroke-linejoin="round"/>
<path d="M47.509 22.5652L47.7235 23.3837L33.6836 26.7698L33.6191 26.524L47.509 22.5652Z" fill="#BC9434" stroke="#BC9434" stroke-width="0.376003" stroke-linejoin="round"/>
<path d="M44.6587 23.88C44.6587 23.7734 44.6271 23.6693 44.5679 23.5807C44.5088 23.4922 44.4246 23.4231 44.3262 23.3824C44.2278 23.3416 44.1195 23.3309 44.0151 23.3517C43.9106 23.3725 43.8146 23.4238 43.7393 23.4991C43.664 23.5744 43.6127 23.6704 43.5919 23.7749C43.5711 23.8794 43.5818 23.9876 43.6225 24.0861C43.6633 24.1845 43.7323 24.2686 43.8209 24.3278C43.9095 24.3869 44.0136 24.4185 44.1201 24.4185C44.1908 24.4185 44.2609 24.4046 44.3262 24.3775C44.3916 24.3505 44.4509 24.3108 44.501 24.2608C44.551 24.2108 44.5906 24.1514 44.6177 24.0861C44.6448 24.0207 44.6587 23.9507 44.6587 23.88Z" fill="white" stroke="#BC9434" stroke-width="0.376003" stroke-linejoin="round"/>
<path d="M38.947 34.0881L38.1047 33.5357C38.1047 33.5357 37.5826 34.0411 37.5523 34.0881C37.5219 34.135 36.0875 34.3063 35.803 34.3063C35.5186 34.3063 35.3151 34.2391 35.281 34.3744C35.247 34.5098 35.6852 34.8117 36.325 34.9802C36.5773 35.0465 36.9456 35.1791 37.3083 35.3089L37.2512 35.4516C37.2512 35.4516 38.2105 35.8051 38.3624 35.8198C38.414 35.8263 38.4637 35.748 38.507 35.6431C38.657 35.5077 38.947 34.0881 38.947 34.0881Z" fill="#BC9434" stroke="#BC9434" stroke-width="0.376003" stroke-linejoin="round"/>
<path d="M53.2115 26.8831L53.4141 27.8664C53.4141 27.8664 54.1405 27.8756 54.2003 27.8664C54.2602 27.8571 55.3972 28.7437 55.5969 28.9454C55.7967 29.147 55.8952 29.3366 56.0149 29.2648C56.1346 29.193 56.0361 28.6701 55.701 28.0993C55.5684 27.8746 55.3999 27.5211 55.2351 27.1731L55.376 27.1123C55.376 27.1123 54.9442 26.1852 54.8485 26.0665C54.8153 26.026 54.7251 26.0462 54.6211 26.0895C54.4148 26.0831 53.2115 26.8831 53.2115 26.8831Z" fill="#BC9434" stroke="#BC9434" stroke-width="0.376003" stroke-linejoin="round"/>
<path d="M43.379 24.2528C43.379 24.2528 43.1093 24.4213 43.1434 24.5226C43.1774 24.6238 43.3956 24.7914 43.3956 24.7914C43.3956 24.7914 39.8364 27.8599 39.7692 28.0956C39.702 28.3313 37.5504 33.532 37.5504 33.532L39.2002 34.3606L41.4024 29.1258L45.1467 26.7321C45.1467 26.7321 47.8534 30.5823 48.1231 30.5491C48.3929 30.516 53.9306 27.9363 53.9306 27.9363L53.3902 26.6695L48.7114 28.2714L47.2504 24.9939C47.2504 24.9939 47.6039 24.3872 47.3857 23.7971C47.1675 23.207 46.5267 22.2983 46.5267 22.2983L43.379 24.2528Z" fill="#BC9434" stroke="#BC9434" stroke-width="0.376003" stroke-linejoin="round"/>
<path d="M45.1458 26.7275C45.1458 26.7275 46.9392 25.654 47.0911 25.5021" stroke="#999999" stroke-width="0.376003" stroke-linejoin="round"/>
<path d="M44.1671 24.2362C44.3741 24.0517 44.5944 23.8827 44.8263 23.7307C45.1798 23.5291 45.9882 23.5623 45.9882 23.5623" stroke="#999999" stroke-width="0.376003" stroke-linejoin="round"/>
<path d="M43.5972 24.7408C43.5972 24.7408 43.7169 24.6303 43.8863 24.4802" stroke="#999999" stroke-width="0.376003" stroke-linejoin="round"/>
<path d="M46.3748 23.3772C46.3748 23.3772 45.7018 23.2925 45.178 23.4279" stroke="#999999" stroke-width="0.376003" stroke-linejoin="round"/>
<path d="M45.5664 26.559C45.5664 26.559 46.9639 26.8122 47.4187 26.7781" stroke="#999999" stroke-width="0.376003" stroke-linejoin="round"/>
<path d="M47.266 27.6407C47.3746 27.673 47.4823 27.6997 47.5873 27.7208" stroke="#999999" stroke-width="0.376003" stroke-linejoin="round"/>
<path d="M45.5499 26.8629C46.0027 27.1301 46.4777 27.3577 46.9696 27.5432" stroke="#999999" stroke-width="0.376003" stroke-linejoin="round"/>
<path d="M43.1083 23.9499L43.378 24.2528L46.5266 22.2992L46.3241 22.0975L43.1083 23.9499Z" fill="#BC9434" stroke="#BC9434" stroke-width="0.376003" stroke-linejoin="round"/>
<path d="M47.6886 20.05L47.9777 20.4395L48.6847 20.1946L48.5402 19.8475L47.6886 20.05Z" fill="white" stroke="#BC9434" stroke-width="0.376003" stroke-linejoin="round"/>
<path d="M40.2488 17.2108C40.2488 17.2108 38.8485 17.231 38.1314 17.2108C37.4142 17.1905 35.4099 16.7909 35.2497 17.0911C35.0895 17.3912 35.4293 18.2115 36.4107 18.5319C37.3921 18.8523 39.5326 19.1524 39.5326 19.1524C39.5326 19.1524 40.4127 20.2572 40.9136 20.9136C41.4144 21.57 42.3341 23.0955 42.4142 23.2355C42.4943 23.3754 42.8543 24.2362 43.3349 24.0558C43.8154 23.8753 46.4365 22.255 46.4365 22.1344C46.4365 22.0138 46.4365 21.8582 46.3573 21.7542C46.2782 21.6501 45.3363 20.4938 45.1762 20.1891C45.016 19.8843 44.4396 18.4085 44.4396 18.4085L45.7 18.1084C45.7 18.1084 47.1813 19.749 47.4612 20.0095C47.7411 20.2701 47.9814 20.1697 47.9814 20.1697C47.9814 20.1697 48.6424 20.0491 48.6617 19.8493C48.6811 19.6496 46.4605 16.2468 46.2404 16.1272C46.0204 16.0075 44.5391 16.5074 43.9388 16.6068C43.3385 16.7062 42.6177 16.7467 41.7771 16.9475C41.274 17.0686 40.7635 17.1566 40.2488 17.2108Z" fill="white" stroke="#BC9434" stroke-width="0.376003" stroke-linejoin="round"/>
<path d="M44.4295 18.4122L42.428 18.9719" stroke="#BC9434" stroke-width="0.376003" stroke-linejoin="round"/>
<path d="M43.5282 18.6718L42.8285 19.2325" stroke="#BC9434" stroke-width="0.376003" stroke-linejoin="round"/>
<path d="M37.8256 18.3698L37.5245 18.2318" stroke="#BC9434" stroke-width="0.376003" stroke-linejoin="round"/>
<path d="M38.1248 18.1922L39.5261 19.1524L38.0438 18.4712" stroke="#BC9434" stroke-width="0.376003" stroke-linejoin="round"/>
<path d="M42.8975 21.2819C43.6018 21.4282 44.8308 21.6437 45.8675 21.6207" stroke="#BC9434" stroke-width="0.376003" stroke-linejoin="round"/>
<path d="M42.3203 21.1511C42.3203 21.1511 42.4409 21.1815 42.6462 21.2275" stroke="#BC9434" stroke-width="0.376003" stroke-linejoin="round"/>
<path d="M44.4939 21.3297C44.4939 21.3297 45.328 21.5028 45.885 21.5028" stroke="#BC9434" stroke-width="0.376003" stroke-linejoin="round"/>
<path d="M40.223 18.2677L40.5259 19.2813L40.92 18.2373L40.223 18.2677Z" fill="#BC9434" stroke="#BC9434" stroke-width="0.376003" stroke-linejoin="round"/>
<path d="M40.3141 17.5035L39.9146 17.9436L40.6032 18.4951L40.9889 17.8064L40.3141 17.5035Z" fill="white" stroke="#BC9434" stroke-width="0.376003" stroke-linejoin="round"/>
<path d="M39.9146 17.9436L40.1079 18.7565L40.3832 18.3155L39.9146 17.9436Z" fill="white" stroke="#BC9434" stroke-width="0.376003" stroke-linejoin="round"/>
<path d="M38.634 14.3908C38.634 14.3908 38.3578 15.0657 38.3725 15.2443C38.3873 15.4229 38.5245 15.5333 38.5106 15.7405C38.4968 15.9476 38.0697 16.3325 38.1663 16.4291C38.263 16.5258 38.6202 16.6768 38.6202 16.6768C38.6202 16.6768 39.006 17.4759 39.1441 17.5054C39.2821 17.5348 40.0251 17.161 40.0251 17.161L40.6033 18.496L41.7467 16.8029L41.361 16.0452C41.361 16.0452 41.6915 15.1918 41.3748 14.4893C41.0581 13.7869 40.0527 13.7454 39.5703 13.8283C39.0879 13.9112 38.7307 14.1155 38.634 14.3908Z" fill="white" stroke="#BC9434" stroke-width="0.376003" stroke-miterlimit="10"/>
<path d="M39.5574 14.2408C39.4454 14.217 39.3295 14.2183 39.2181 14.2445C39.1067 14.2708 39.0025 14.3214 38.9129 14.3927C38.5695 14.6403 38.2795 14.9156 38.1423 14.6689C38.0051 14.4221 38.4314 14.0078 38.4314 14.0078C38.4314 14.0078 38.0871 13.9112 38.2252 13.5125C38.3633 13.1139 38.8696 13.0301 38.8696 13.1682C38.8696 13.3063 38.8282 13.4159 39.214 13.2234C39.5997 13.031 39.8059 12.9749 39.8888 13.1958C39.9716 13.4168 40.467 13.2879 41.0313 13.6083C41.5957 13.9287 41.7338 14.1321 41.6095 14.8484C41.4852 15.5646 41.4585 15.908 41.3618 16.0452C41.2652 16.1824 40.9208 16.2238 40.7698 16.1695C40.6189 16.1152 40.7008 15.9624 40.7008 15.9624C40.7008 15.9624 41.1004 15.5628 40.9208 15.2461C40.7413 14.9294 40.4808 15.0675 40.3979 15.2461C40.315 15.4247 40.3565 15.5766 40.2322 15.5766C40.1079 15.5766 39.9983 15.4845 39.9707 15.2875C39.9431 15.0905 39.8474 14.9193 39.7645 14.888C39.6816 14.8567 39.4754 15.0399 39.4883 14.7232C39.4931 14.5405 39.5611 14.3651 39.6807 14.2269L39.5574 14.2408Z" fill="#BC9434" stroke="#BC9434" stroke-width="0.376003" stroke-miterlimit="10"/>
<path d="M38.6349 15.6024C38.6314 15.5147 38.6602 15.4287 38.7158 15.3608C38.7715 15.2929 38.8502 15.2478 38.9369 15.2341" stroke="#BC9434" stroke-width="0.376003" stroke-miterlimit="10"/>
<path d="M38.9599 15.7386C38.9866 15.8132 38.9783 15.885 38.9424 15.8979C38.9065 15.9108 38.8567 15.8592 38.83 15.7837C38.8033 15.7083 38.8116 15.6374 38.8475 15.6245C38.8834 15.6116 38.9341 15.6631 38.9599 15.7386Z" fill="#BC9434"/>
<path d="M41.7191 16.3601L40.5214 17.8884L40.7414 18.7013L42.1463 16.7459L41.7191 16.3601Z" fill="white" stroke="#BC9434" stroke-width="0.376003" stroke-linejoin="round"/>
<path d="M40.525 19.2813C40.5459 19.3504 40.585 19.4126 40.6384 19.4612C40.6917 19.5098 40.7572 19.5431 40.8279 19.5575C41.07 19.6026 41.4935 19.4213 41.7053 18.8762C41.917 18.3312 42.3562 16.8333 42.6131 16.4697C42.8699 16.106 43.7178 16.0922 44.157 16.1217C44.5961 16.1511 44.8981 15.7285 45.3069 15.5315C45.5463 15.4151 45.8011 15.3336 46.0636 15.2894L46.5792 14.2408L45.5048 14.2104C45.5048 14.2104 44.4451 14.7103 44.1726 15.0279C43.9001 15.3455 43.704 15.3041 43.1286 15.421C42.5532 15.538 42.2365 15.7847 42.0091 16.4807C41.7817 17.1767 41.4797 18.9324 41.1465 19.1745C41.0613 19.2451 40.959 19.2921 40.85 19.3109C40.741 19.3296 40.6289 19.3194 40.525 19.2813Z" fill="#BC9434" stroke="#BC9434" stroke-width="0.376003" stroke-linejoin="round"/>
<path d="M36.8047 18.1406C36.929 18.2704 36.9474 18.4545 36.8452 18.554C36.743 18.6534 36.5579 18.6285 36.4336 18.4997C36.3094 18.3708 36.2909 18.1857 36.3931 18.0863C36.4953 17.9869 36.6795 18.0154 36.8047 18.1406Z" fill="white" stroke="#BC9434" stroke-width="0.376003" stroke-linejoin="round"/>
<path d="M36.7061 18.3919L36.5064 18.1802C36.5064 18.1802 36.0957 17.1104 35.548 16.8241C35.0002 16.5378 34.341 16.9732 34.2038 17.3838C34.0666 17.7944 34.5527 18.4794 35.0628 18.6912C35.4724 18.8446 35.8927 18.9677 36.3204 19.0594C36.3204 19.0594 36.557 18.5043 36.7061 18.3919Z" fill="white" stroke="#BC9434" stroke-width="0.376003" stroke-linejoin="round"/>
<path d="M35.9964 18.9646L36.0175 18.9922C36.1971 19.0374 36.3204 19.0641 36.3204 19.0641C36.3204 19.0641 36.557 18.5043 36.7062 18.392L36.5064 18.1802C36.5064 18.1802 35.9338 18.2797 35.9964 18.9646Z" fill="#BC9434" stroke="#BC9434" stroke-width="0.376003" stroke-linejoin="round"/>
<path d="M37.9629 20.0473C38.0354 20.1515 38.1191 20.2475 38.2124 20.3336C38.3118 20.4091 38.3486 20.4957 38.2243 20.4837C38.0739 20.4801 37.9309 20.4172 37.8266 20.3088C37.7014 20.1725 37.6149 20.0602 37.6149 20.0602L37.9629 20.0473Z" fill="white" stroke="#BC9434" stroke-width="0.376003" stroke-linejoin="round"/>
<path d="M38.0255 19.6726C38.0255 19.6726 38.1995 19.9589 38.1378 20.0335C38.0761 20.1081 37.5025 20.1329 37.4151 20.1081C37.3276 20.0832 37.3902 19.9709 37.3902 19.9709L38.0255 19.6726Z" fill="white" stroke="#BC9434" stroke-width="0.376003" stroke-linejoin="round"/>
<path d="M38.0126 19.3384C38.0126 19.3384 38.1498 19.5501 38.1249 19.6367C38.1 19.7232 37.5154 19.9856 37.3884 19.9727C37.2613 19.9598 37.277 19.8613 37.277 19.8613L38.0126 19.3384Z" fill="white" stroke="#BC9434" stroke-width="0.376003" stroke-linejoin="round"/>
<path d="M37.7769 19.0889C37.7769 19.0889 38.0006 19.064 38.0254 19.2261C38.0503 19.3881 37.9131 19.4378 37.8266 19.5124C37.74 19.587 37.3663 19.8613 37.2788 19.8613C37.1913 19.8613 37.0293 19.6118 37.0293 19.6118L37.7769 19.0889Z" fill="white" stroke="#BC9434" stroke-width="0.376003" stroke-linejoin="round"/>
<path d="M36.7061 18.392C36.7061 18.392 37.3156 18.6166 37.6019 18.6912C37.8882 18.7658 37.9011 19.0024 37.7768 19.0889C37.6525 19.1754 37.2659 19.6496 37.1535 19.6744C37.0412 19.6993 36.8774 19.575 36.8774 19.575C36.8774 19.575 36.5284 19.4001 36.4787 19.2638C36.4484 19.1814 36.3918 19.1112 36.3176 19.064C36.3176 19.064 36.2826 18.554 36.7061 18.392Z" fill="white" stroke="#BC9434" stroke-width="0.376003" stroke-linejoin="round"/>
<path d="M36.8801 19.575C36.8801 19.575 36.7807 19.3384 36.8681 19.2758C36.9556 19.2132 37.0919 19.3503 37.0919 19.3503C37.1117 19.2782 37.1455 19.2107 37.1913 19.1515" stroke="#BC9434" stroke-width="0.376003" stroke-linejoin="round"/>
<path d="M47.9823 20.4395C48.0152 20.618 48.0358 20.7985 48.044 20.9799C48.0338 21.106 47.8138 21.6308 47.8027 21.6621C47.7917 21.6934 47.8764 21.8195 47.9077 21.8609C47.939 21.9024 48.0863 21.8821 48.2014 21.976C48.3165 22.0699 48.4527 22.3019 48.6212 22.2522C48.7897 22.2025 48.8974 21.976 48.8974 21.976C48.8974 21.976 49.285 21.7459 49.2951 21.6308C49.3004 21.4889 49.2827 21.3471 49.2426 21.211C49.2113 21.1189 48.6903 20.1982 48.6903 20.1982L47.9823 20.4395Z" fill="white" stroke="#BC9434" stroke-width="0.376003" stroke-linejoin="round"/>
<path d="M48.0918 21.5673C48.0918 21.5673 48.2907 21.5986 48.3754 21.9033" stroke="#BC9434" stroke-width="0.376003" stroke-linejoin="round"/>
<path d="M48.1967 21.7247L47.7456 21.9558L48.1654 22.742" stroke="#BC9434" stroke-width="1.12801" stroke-linecap="round" stroke-linejoin="round"/>
<path d="M49.2979 21.3472L49.4231 21.2947L49.8429 22.1334" stroke="#BC9434" stroke-width="1.12801" stroke-linejoin="round"/>
<path d="M51.3964 21.2918L46.8842 23.3055C46.7082 23.384 46.6292 23.5904 46.7078 23.7663L47.9185 26.4794C47.997 26.6553 48.2034 26.7343 48.3793 26.6558L52.8915 24.6421C53.0675 24.5636 53.1465 24.3573 53.068 24.1813L51.8572 21.4683C51.7787 21.2923 51.5723 21.2133 51.3964 21.2918Z" fill="#BC9434" stroke="#BC9434" stroke-width="0.376003" stroke-linejoin="round"/>
</svg>
