<svg width="45" height="59" viewBox="0 0 45 59" fill="none" xmlns="http://www.w3.org/2000/svg">
<mask id="path-1-inside-1_0_822" fill="white">
<path d="M44.625 4.17247C40.4599 1.68514 35.7456 0.263419 30.8998 0.0332275C26.0539 -0.196964 21.2261 0.771484 16.8439 2.85279C12.4618 4.93409 8.66054 8.064 5.77694 11.9653C2.89334 15.8666 1.01638 20.4188 0.312318 25.2187C-0.39174 30.0187 0.0988346 34.9182 1.74059 39.4832C3.38234 44.0483 6.1246 48.138 9.72445 51.3901C13.3243 54.6422 17.6706 56.9564 22.3785 58.1275C27.0863 59.2986 32.0103 59.2907 36.7143 58.1043L36.2357 56.2069C31.8438 57.3146 27.2464 57.322 22.8508 56.2286C18.4553 55.1351 14.3973 52.9745 11.0362 49.9381C7.67515 46.9017 5.11479 43.0833 3.58194 38.821C2.04909 34.5588 1.59106 29.9843 2.24841 25.5027C2.90577 21.0212 4.65822 16.7709 7.35055 13.1284C10.0429 9.48591 13.592 6.56361 17.6834 4.62036C21.7749 2.67712 26.2825 1.77291 30.8069 1.98783C35.3313 2.20276 39.7329 3.53017 43.6217 5.85251L44.625 4.17247Z"/>
</mask>
<path d="M44.625 4.17247C40.4599 1.68514 35.7456 0.263419 30.8998 0.0332275C26.0539 -0.196964 21.2261 0.771484 16.8439 2.85279C12.4618 4.93409 8.66054 8.064 5.77694 11.9653C2.89334 15.8666 1.01638 20.4188 0.312318 25.2187C-0.39174 30.0187 0.0988346 34.9182 1.74059 39.4832C3.38234 44.0483 6.1246 48.138 9.72445 51.3901C13.3243 54.6422 17.6706 56.9564 22.3785 58.1275C27.0863 59.2986 32.0103 59.2907 36.7143 58.1043L36.2357 56.2069C31.8438 57.3146 27.2464 57.322 22.8508 56.2286C18.4553 55.1351 14.3973 52.9745 11.0362 49.9381C7.67515 46.9017 5.11479 43.0833 3.58194 38.821C2.04909 34.5588 1.59106 29.9843 2.24841 25.5027C2.90577 21.0212 4.65822 16.7709 7.35055 13.1284C10.0429 9.48591 13.592 6.56361 17.6834 4.62036C21.7749 2.67712 26.2825 1.77291 30.8069 1.98783C35.3313 2.20276 39.7329 3.53017 43.6217 5.85251L44.625 4.17247Z" stroke="#FED36A" stroke-width="4" mask="url(#path-1-inside-1_0_822)"/>
</svg>
